# xmcd
#
# Track frame offsets:
#	150
#	13360
#	26790
#	38977
#	48742
#	60232
#	77212
#	90429
#	104510
#	120800
#	130447
#	144507
#	154937
#	168800
#	183272
#	206142
#
# Disc length: 2905 seconds
#
# Revision: 7
# Processed by: cddbd v1.5.2PL0 Copyright (c) Steve Scherf et al.
# Submitted via: EasyCDDAExtractor 10.0.2.1
#
DISCID=d80b5710
DTITLE=Johnny Paycheck - Johnny Paycheck 16 Biggest Hits
DYEAR=1999
DGENRE=Country
TTITLE0=She's All I Got
TTITLE1=Someone To Give My Love To
TTITLE2=A Heart Don't Need Eyes
TTITLE3=Mr. Lovemaker
TTITLE4=Song And Dance Man
TTITLE5=11 Months And 29 Days
TTITLE6=Slide Off Of Your Satin Sheets
TTITLE7=I'm The Only Hell (My Mama Ever Raised)
TTITLE8=Colorado Cool-Aid
TTITLE9=Loving You Beats All I've Ever Seen
TTITLE10=Friend, Lover, Wife
TTITLE11=Mabellene
TTITLE12=Drinkin' And Drivin'
TTITLE13=Me And The I.R.S.
TTITLE14=The Outlaw's Prayer
TTITLE15=Take This Job And Shove It
EXTD=YEAR: 1999 ID3G: 2
EXTT0=
EXTT1=
EXTT2=
EXTT3=
EXTT4=
EXTT5=
EXTT6=
EXTT7=
EXTT8=
EXTT9=
EXTT10=
EXTT11=
EXTT12=
EXTT13=
EXTT14=
EXTT15=
PLAYORDER=
